<svg xmlns="http://www.w3.org/2000/svg" style="display:none" xmlns:c2pa="http://c2pa.org/manifest"><metadata><c2pa:manifest>AAAWgmp1bWIAAAAeanVtZGMycGEAEQAQgAAAqgA4m3EDYzJwYQAAABZcanVtYgAAAEdqdW1kYzJtYQARABCAAACqADibcQN1cm46YzJwYTpmZjUzMmYyZS0yNzY3LTQ2ZWItODliOS04MTMyMzQ0M2UzYmEAAAADl2p1bWIAAAApanVtZGMyYXMAEQAQgAAAqgA4m3EDYzJwYS5hc3NlcnRpb25zAAAAALxqdW1iAAAARGp1bWRjYm9yABEAEIAAAKoAOJtxE2MycGEuaW5ncmVkaWVudC52MwAAAAAYYzJzaHkgcEZeqFaOCTBLC5vSSdsAAABwY2JvcqNpZGM6Zm9ybWF0bWltYWdlL3N2Zyt4bWxqaW5zdGFuY2VJRHgseG1wOmlpZDo5MDc4ODkwYS02MjIxLTRjZTMtOWVjMy0zMDgwYzc2ZTliZDFscmVsYXRpb25zaGlwaHBhcmVudE9mAAAB4mp1bWIAAABBanVtZGNib3IAEQAQgAAAqgA4m3ETYzJwYS5hY3Rpb25zLnYyAAAAABhjMnNoO1U5Zl1n4cXpm5cEKwxerQAAAZljYm9yomdhY3Rpb25zgqJmYWN0aW9ua2MycGEub3BlbmVkanBhcmFtZXRlcnOha2luZ3JlZGllbnRzgaJjdXJseC1zZWxmI2p1bWJmPWMycGEuYXNzZXJ0aW9ucy9jMnBhLmluZ3JlZGllbnQudjNkaGFzaFggV0icEBwZa7FDsNE3MP54IaI88Qyi8qmn/My9iG/hxHWkZmFjdGlvbngdY29tLmFudGhyb3BpYy5jbGF1ZGUucHJvdmlkZWRqcGFyYW1ldGVyc6F4H2NvbS5hbnRocm9waWMub3JpZ2luLWNvbmZpZGVuY2VndW5rbm93bmtkZXNjcmlwdGlvbnhmQ2xhdWRlIHByb3ZpZGVkIHRoaXMgZmlsZSBhdCB0aGUgcmVxdWVzdCBvZiBhIHVzZXIgYW5kIG1heSBoYXZlIGNyZWF0ZWQgb3IgbW9kaWZpZWQgdGhlIGZpbGUgY29udGVudHMubXNvZnR3YXJlQWdlbnShZG5hbWVmQ2xhdWRlcmFsbEFjdGlvbnNJbmNsdWRlZPUAAADIanVtYgAAAEBqdW1kY2JvcgARABCAAACqADibcRNjMnBhLmhhc2guZGF0YQAAAAAYYzJzaLW7rnT+BaOCP/VgwMZdW9IAAACAY2JvcqVjYWxnZnNoYTI1NmNwYWRNAAAAAAAAAAAAAAAAAGRoYXNoWCBTp39shlwnjH/PA9NWAEObySdIdwVtLn8wO8ScXP8IwmRuYW1lbmp1bWJmIG1hbmlmZXN0amV4Y2x1c2lvbnOBomVzdGFydBh8Zmxlbmd0aBkeBAAAAj5qdW1iAAAAJ2p1bWRjMmNsABEAEIAAAKoAOJtxA2MycGEuY2xhaW0udjIAAAACD2Nib3KlY2FsZ2ZzaGEyNTZpc2lnbmF0dXJleE1zZWxmI2p1bWJmPS9jMnBhL3VybjpjMnBhOmZmNTMyZjJlLTI3NjctNDZlYi04OWI5LTgxMzIzNDQzZTNiYS9jMnBhLnNpZ25hdHVyZWppbnN0YW5jZUlEeCx4bXA6aWlkOjg2MmY0YWYwLWFiNzItNDgyNi04OGFiLWUwZDZjNzI2NmFlMnJjcmVhdGVkX2Fzc2VydGlvbnODomN1cmx4LXNlbGYjanVtYmY9YzJwYS5hc3NlcnRpb25zL2MycGEuaW5ncmVkaWVudC52M2RoYXNoWCBXSJwQHBlrsUOw0Tcw/nghojzxDKLyqaf8zL2Ib+HEdaJjdXJseCpzZWxmI2p1bWJmPWMycGEuYXNzZXJ0aW9ucy9jMnBhLmFjdGlvbnMudjJkaGFzaFggeTY/n/cqtQwOHRiab3thmJ7OhW+tgYUHzG8Y9C3zvOGiY3VybHgpc2VsZiNqdW1iZj1jMnBhLmFzc2VydGlvbnMvYzJwYS5oYXNoLmRhdGFkaGFzaFggQ68sEVb2Wi/sEg5AtbbYLU+GMe6exR78W9sCPqpbvCp0Y2xhaW1fZ2VuZXJhdG9yX2luZm+jZG5hbWVvQW50aHJvcGljIEZpbGVzZ3ZlcnNpb25lMS4wLjBrc3BlY1ZlcnNpb25lMi40LjAAABA4anVtYgAAAChqdW1kYzJjcwARABCAAACqADibcQNjMnBhLnNpZ25hdHVyZQAAABAIY2JvctKEWQISogEmGCFZAgowggIGMIIBjaADAgECAhRA5aAK7sI50L64g/oGQgU9Z1UTADAKBggqhkjOPQQDAzBJMRcwFQYDVQQKEw5BbnRocm9waWMsIFBCQzEuMCwGA1UEAxMlQW50aHJvcGljIENvbnRlbnQgQ3JlZGVudGlhbHMgUm9vdCBDQTAeFw0yNjA4MDcxODQzNTZaFw0yODA4MDYxOTQzNTZaMEQxFzAVBgNVBAoTDkFudGhyb3BpYywgUEJDMSkwJwYDVQQDEyBBbnRocm9waWMgQ2xhdWRlIENvbnRlbnQgU2lnbmluZzBZMBMGByqGSM49AgEGCCqGSM49AwEHA0IABJh6CmvLUBgFFNU0vUKlOVtE6djd17L5SuwX0LemFisBM3dkd/3cyjxFA3Qo5S46fX0/ihY0VZ7mfb9KF703t5OjWDBWMA4GA1UdDwEB/wQEAwIHgDAVBgNVHSUEDjAMBgorBgEEAYPoXgIBMAwGA1UdEwEB/wQCMAAwHwYDVR0jBBgwFoAUzlHiBIFOZFsj+OPEz5o+nMHXXMIwCgYIKoZIzj0EAwMDZwAwZAIwMXMdFJ4BetLLVY7ORuE9noqbbAZOZn/aArXyTwFAZfKrPzxF2vPoJNf1+UCdg1XGAjBwX1zd9WGqYkqmL5SFqw1QySjr1zJfpJM9+1rdDwSPLMOPOjKuiXjoU/pUUeG9RwmhY3BhZFkNngAAAAAAAAAAAAAAAAAAAAAAAAAAAAAAAAAAAAAAAAAAAAAAAAAAAAAAAAAAAAAAAAAAAAAAAAAAAAAAAAAAAAAAAAAAAAAAAAAAAAAAAAAAAAAAAAAAAAAAAAAAAAAAAAAAAAAAAAAAAAAAAAAAAAAAAAAAAAAAAAAAAAAAAAAAAAAAAAAAAAAAAAAAAAAAAAAAAAAAAAAAAAAAAAAAAAAAAAAAAAAAAAAAAAAAAAAAAAAAAAAAAAAAAAAAAAAAAAAAAAAAAAAAAAAAAAAAAAAAAAAAAAAAAAAAAAAAAAAAAAAAAAAAAAAAAAAAAAAAAAAAAAAAAAAAAAAAAAAAAAAAAAAAAAAAAAAAAAAAAAAAAAAAAAAAAAAAAAAAAAAAAAAAAAAAAAAAAAAAAAAAAAAAAAAAAAAAAAAAAAAAAAAAAAAAAAAAAAAAAAAAAAAAAAAAAAAAAAAAAAAAAAAAAAAAAAAAAAAAAAAAAAAAAAAAAAAAAAAAAAAAAAAAAAAAAAAAAAAAAAAAAAAAAAAAAAAAAAAAAAAAAAAAAAAAAAAAAAAAAAAAAAAAAAAAAAAAAAAAAAAAAAAAAAAAAAAAAAAAAAAAAAAAAAAAAAAAAAAAAAAAAAAAAAAAAAAAAAAAAAAAAAAAAAAAAAAAAAAAAAAAAAAAAAAAAAAAAAAAAAAAAAAAAAAAAAAAAAAAAAAAAAAAAAAAAAAAAAAAAAAAAAAAAAAAAAAAAAAAAAAAAAAAAAAAAAAAAAAAAAAAAAAAAAAAAAAAAAAAAAAAAAAAAAAAAAAAAAAAAAAAAAAAAAAAAAAAAAAAAAAAAAAAAAAAAAAAAAAAAAAAAAAAAAAAAAAAAAAAAAAAAAAAAAAAAAAAAAAAAAAAAAAAAAAAAAAAAAAAAAAAAAAAAAAAAAAAAAAAAAAAAAAAAAAAAAAAAAAAAAAAAAAAAAAAAAAAAAAAAAAAAAAAAAAAAAAAAAAAAAAAAAAAAAAAAAAAAAAAAAAAAAAAAAAAAAAAAAAAAAAAAAAAAAAAAAAAAAAAAAAAAAAAAAAAAAAAAAAAAAAAAAAAAAAAAAAAAAAAAAAAAAAAAAAAAAAAAAAAAAAAAAAAAAAAAAAAAAAAAAAAAAAAAAAAAAAAAAAAAAAAAAAAAAAAAAAAAAAAAAAAAAAAAAAAAAAAAAAAAAAAAAAAAAAAAAAAAAAAAAAAAAAAAAAAAAAAAAAAAAAAAAAAAAAAAAAAAAAAAAAAAAAAAAAAAAAAAAAAAAAAAAAAAAAAAAAAAAAAAAAAAAAAAAAAAAAAAAAAAAAAAAAAAAAAAAAAAAAAAAAAAAAAAAAAAAAAAAAAAAAAAAAAAAAAAAAAAAAAAAAAAAAAAAAAAAAAAAAAAAAAAAAAAAAAAAAAAAAAAAAAAAAAAAAAAAAAAAAAAAAAAAAAAAAAAAAAAAAAAAAAAAAAAAAAAAAAAAAAAAAAAAAAAAAAAAAAAAAAAAAAAAAAAAAAAAAAAAAAAAAAAAAAAAAAAAAAAAAAAAAAAAAAAAAAAAAAAAAAAAAAAAAAAAAAAAAAAAAAAAAAAAAAAAAAAAAAAAAAAAAAAAAAAAAAAAAAAAAAAAAAAAAAAAAAAAAAAAAAAAAAAAAAAAAAAAAAAAAAAAAAAAAAAAAAAAAAAAAAAAAAAAAAAAAAAAAAAAAAAAAAAAAAAAAAAAAAAAAAAAAAAAAAAAAAAAAAAAAAAAAAAAAAAAAAAAAAAAAAAAAAAAAAAAAAAAAAAAAAAAAAAAAAAAAAAAAAAAAAAAAAAAAAAAAAAAAAAAAAAAAAAAAAAAAAAAAAAAAAAAAAAAAAAAAAAAAAAAAAAAAAAAAAAAAAAAAAAAAAAAAAAAAAAAAAAAAAAAAAAAAAAAAAAAAAAAAAAAAAAAAAAAAAAAAAAAAAAAAAAAAAAAAAAAAAAAAAAAAAAAAAAAAAAAAAAAAAAAAAAAAAAAAAAAAAAAAAAAAAAAAAAAAAAAAAAAAAAAAAAAAAAAAAAAAAAAAAAAAAAAAAAAAAAAAAAAAAAAAAAAAAAAAAAAAAAAAAAAAAAAAAAAAAAAAAAAAAAAAAAAAAAAAAAAAAAAAAAAAAAAAAAAAAAAAAAAAAAAAAAAAAAAAAAAAAAAAAAAAAAAAAAAAAAAAAAAAAAAAAAAAAAAAAAAAAAAAAAAAAAAAAAAAAAAAAAAAAAAAAAAAAAAAAAAAAAAAAAAAAAAAAAAAAAAAAAAAAAAAAAAAAAAAAAAAAAAAAAAAAAAAAAAAAAAAAAAAAAAAAAAAAAAAAAAAAAAAAAAAAAAAAAAAAAAAAAAAAAAAAAAAAAAAAAAAAAAAAAAAAAAAAAAAAAAAAAAAAAAAAAAAAAAAAAAAAAAAAAAAAAAAAAAAAAAAAAAAAAAAAAAAAAAAAAAAAAAAAAAAAAAAAAAAAAAAAAAAAAAAAAAAAAAAAAAAAAAAAAAAAAAAAAAAAAAAAAAAAAAAAAAAAAAAAAAAAAAAAAAAAAAAAAAAAAAAAAAAAAAAAAAAAAAAAAAAAAAAAAAAAAAAAAAAAAAAAAAAAAAAAAAAAAAAAAAAAAAAAAAAAAAAAAAAAAAAAAAAAAAAAAAAAAAAAAAAAAAAAAAAAAAAAAAAAAAAAAAAAAAAAAAAAAAAAAAAAAAAAAAAAAAAAAAAAAAAAAAAAAAAAAAAAAAAAAAAAAAAAAAAAAAAAAAAAAAAAAAAAAAAAAAAAAAAAAAAAAAAAAAAAAAAAAAAAAAAAAAAAAAAAAAAAAAAAAAAAAAAAAAAAAAAAAAAAAAAAAAAAAAAAAAAAAAAAAAAAAAAAAAAAAAAAAAAAAAAAAAAAAAAAAAAAAAAAAAAAAAAAAAAAAAAAAAAAAAAAAAAAAAAAAAAAAAAAAAAAAAAAAAAAAAAAAAAAAAAAAAAAAAAAAAAAAAAAAAAAAAAAAAAAAAAAAAAAAAAAAAAAAAAAAAAAAAAAAAAAAAAAAAAAAAAAAAAAAAAAAAAAAAAAAAAAAAAAAAAAAAAAAAAAAAAAAAAAAAAAAAAAAAAAAAAAAAAAAAAAAAAAAAAAAAAAAAAAAAAAAAAAAAAAAAAAAAAAAAAAAAAAAAAAAAAAAAAAAAAAAAAAAAAAAAAAAAAAAAAAAAAAAAAAAAAAAAAAAAAAAAAAAAAAAAAAAAAAAAAAAAAAAAAAAAAAAAAAAAAAAAAAAAAAAAAAAAAAAAAAAAAAAAAAAAAAAAAAAAAAAAAAAAAAAAAAAAAAAAAAAAAAAAAAAAAAAAAAAAAAAAAAAAAAAAAAAAAAAAAAAAAAAAAAAAAAAAAAAAAAAAAAAAAAAAAAAAAAAAAAAAAAAAAAAAAAAAAAAAAAAAAAAAAAAAAAAAAAAAAAAAAAAAAAAAAAAAAAAAAAAAAAAAAAAAAAAAAAAAAAAAAAAAAAAAAAAAAAAAAAAAAAAAAAAAAAAAAAAAAAAAAAAAAAAAAAAAAAAAAAAAAAAAAAAAAAAAAAAAAAAAAAAAAAAAAAAAAAAAAAAAAAAAAAAAAAAAAAAAAAAAAAAAAAAAAAAAAAAAAAAAAAAAAAAAAAAAAAAAAAAAAAAAAAAAAAAAAAAAAAAAAAAAAAAAAAAAAAAAAAAAAAAAAAAAAAAAAAAAAAAAAAAAAAAAAAAAAAAAAAAAAAAAAAAAAAAAAAAAAAAAAAAAAAAAAAAAAAAAAAAAAAAAAAAAAAAAAAAAAAAAAAAAAAAAAAAAAAAAAAAAAAAAAAAAAAAAAAAAAAAAAAAAAAAAAAAAAAAAAAAAAAAAAAAAAAAAAAAAAAAAAAAAAAAAAAAAAAAAAAAAAAAAAAAAAAAAAAAAAAAAAAAAAAAAAAAAAAAAAAAAAAAAAAAAAAAAAAAAAAAAAAAAAAAAAAAAAAAAAAAAAAAAAAAAAAAAAAAAAAAAAAAAAAAAAAAAAAAAAAAAAAAAAAAAAAAAAAAAAAAAAAAAAAAAAAAAAAAAAAAAAAAAAAAAAAAAAAAAAAAAAAAAAAAAAAAAAAAAAAAAAAAAAAAAAAAAAAAAAAAAAAAAAAAAAAAAAAAAAAAAAAAAAAAAAAAAAAAAAAAAAAAAAAAAAAAAAAAAAAAAAAAAAAAAAAAAAAAAAAAAAAAAAAAAAAAAAAAAAAAAAAAAAAAAAAAAAAAAAAAAAAAAAAAAAAAAAAAAAAAAAAAAAAAAAAAAAAAAAAAAAAAAAAAAAAAAAAAAAAAAAAAAAAAAAAAAAAAAAAAAAAAAAAAAAAAAAAAAAAAAAAAAAAAAAAAAAAAAAAAAAAAAAAAAAAAAAAAAAAAAAAAAAAAAAAAAAAAAAAAAAAAAAAAAAAAAAAAAAAAAAAAAAAAAAAAAAAAAAAAAAAAAAAAAAAAAAAAAAAAAAAAAAAAAAAAAAAAAAAAAAAAAAAAAAAAAAAAAAAAAAAAAAAAAAAAAAAAAAAAAAAAAAAAAAAAAAAAAAAAAAAAAAAAAAAAAAAAAAAAAAAAAAAAAAAAAAAAAAAAAAAAAAAAAAAAAAAAAAAAAAAAAAAAAAAAAAAAAAAAAAAAAAAAAAAAAAAAAAAAAAAAAAAAAAAAAAAAAAAAAAAAAAAAAAAAAAAAAAAAAAAAAAAAAAAAAAAAAAAAAAAAAAAAAAAAAAAAAAAAAAAAAAAAAAAAAAAAPZYQM9dry2ps5XWbPLMV1vm4paqSuENm6/sFWW8+5qo+N2bo/M7CB0y2iCtpo5A1ejY27gYllUZLcdaxMyMgsSgHNY=</c2pa:manifest></metadata>
  <symbol id="ic-menu" viewBox="0 0 24 24" fill="none" stroke="currentColor" stroke-width="1.75" stroke-linecap="round" stroke-linejoin="round"><path d="M4 7h16M4 12h16M4 17h16"></path></symbol>
  <symbol id="ic-close" viewBox="0 0 24 24" fill="none" stroke="currentColor" stroke-width="1.75" stroke-linecap="round" stroke-linejoin="round"><path d="M6 6l12 12M18 6L6 18"></path></symbol>
  <symbol id="ic-search" viewBox="0 0 24 24" fill="none" stroke="currentColor" stroke-width="1.75" stroke-linecap="round" stroke-linejoin="round"><circle cx="10.5" cy="10.5" r="6.5"></circle><path d="M15.4 15.4L21 21"></path></symbol>
  <symbol id="ic-home" viewBox="0 0 24 24" fill="none" stroke="currentColor" stroke-width="1.75" stroke-linecap="round" stroke-linejoin="round"><path d="M4 11l8-6.5L20 11v9H4z"></path></symbol>
  <symbol id="ic-chevron-left" viewBox="0 0 24 24" fill="none" stroke="currentColor" stroke-width="1.75" stroke-linecap="round" stroke-linejoin="round"><path d="M14 6l-6 6 6 6"></path></symbol>
  <symbol id="ic-chevron-right" viewBox="0 0 24 24" fill="none" stroke="currentColor" stroke-width="1.75" stroke-linecap="round" stroke-linejoin="round"><path d="M10 6l6 6-6 6"></path></symbol>
  <symbol id="ic-chevron-down" viewBox="0 0 24 24" fill="none" stroke="currentColor" stroke-width="1.75" stroke-linecap="round" stroke-linejoin="round"><path d="M6 10l6 6 6-6"></path></symbol>
  <symbol id="ic-chevron-up" viewBox="0 0 24 24" fill="none" stroke="currentColor" stroke-width="1.75" stroke-linecap="round" stroke-linejoin="round"><path d="M6 14l6-6 6 6"></path></symbol>
  <symbol id="ic-arrow-left" viewBox="0 0 24 24" fill="none" stroke="currentColor" stroke-width="1.75" stroke-linecap="round" stroke-linejoin="round"><path d="M20 12H4M10 6l-6 6 6 6"></path></symbol>
  <symbol id="ic-arrow-right" viewBox="0 0 24 24" fill="none" stroke="currentColor" stroke-width="1.75" stroke-linecap="round" stroke-linejoin="round"><path d="M4 12h16M14 6l6 6-6 6"></path></symbol>
  <symbol id="ic-more" viewBox="0 0 24 24" fill="none" stroke="currentColor" stroke-width="1.75" stroke-linecap="round" stroke-linejoin="round"><circle cx="5" cy="12" r="1.4" fill="currentColor" stroke="none"></circle><circle cx="12" cy="12" r="1.4" fill="currentColor" stroke="none"></circle><circle cx="19" cy="12" r="1.4" fill="currentColor" stroke="none"></circle></symbol>
  <symbol id="ic-more-vertical" viewBox="0 0 24 24" fill="none" stroke="currentColor" stroke-width="1.75" stroke-linecap="round" stroke-linejoin="round"><circle cx="12" cy="5" r="1.4" fill="currentColor" stroke="none"></circle><circle cx="12" cy="12" r="1.4" fill="currentColor" stroke="none"></circle><circle cx="12" cy="19" r="1.4" fill="currentColor" stroke="none"></circle></symbol>
  <symbol id="ic-filter" viewBox="0 0 24 24" fill="none" stroke="currentColor" stroke-width="1.75" stroke-linecap="round" stroke-linejoin="round"><path d="M3.5 6h17l-6.5 7.5V20l-4-2.5v-4z"></path></symbol>
  <symbol id="ic-sort" viewBox="0 0 24 24" fill="none" stroke="currentColor" stroke-width="1.75" stroke-linecap="round" stroke-linejoin="round"><path d="M7 4v16M4 17l3 3 3-3M17 20V4M14 7l3-3 3 3"></path></symbol>
  <symbol id="ic-grid-view" viewBox="0 0 24 24" fill="none" stroke="currentColor" stroke-width="1.75" stroke-linecap="round" stroke-linejoin="round"><rect x="4" y="4" width="6.5" height="6.5" rx="1.5"></rect><rect x="13.5" y="4" width="6.5" height="6.5" rx="1.5"></rect><rect x="4" y="13.5" width="6.5" height="6.5" rx="1.5"></rect><rect x="13.5" y="13.5" width="6.5" height="6.5" rx="1.5"></rect></symbol>
  <symbol id="ic-list-view" viewBox="0 0 24 24" fill="none" stroke="currentColor" stroke-width="1.75" stroke-linecap="round" stroke-linejoin="round"><path d="M9 6h11M9 12h11M9 18h11"></path><circle cx="5" cy="6" r="1.3" fill="currentColor" stroke="none"></circle><circle cx="5" cy="12" r="1.3" fill="currentColor" stroke="none"></circle><circle cx="5" cy="18" r="1.3" fill="currentColor" stroke="none"></circle></symbol>
  <symbol id="ic-drag-handle" viewBox="0 0 24 24" fill="none" stroke="currentColor" stroke-width="1.75" stroke-linecap="round" stroke-linejoin="round"><circle cx="9" cy="7" r="1.3" fill="currentColor" stroke="none"></circle><circle cx="15" cy="7" r="1.3" fill="currentColor" stroke="none"></circle><circle cx="9" cy="12" r="1.3" fill="currentColor" stroke="none"></circle><circle cx="15" cy="12" r="1.3" fill="currentColor" stroke="none"></circle><circle cx="9" cy="17" r="1.3" fill="currentColor" stroke="none"></circle><circle cx="15" cy="17" r="1.3" fill="currentColor" stroke="none"></circle></symbol>
  <symbol id="ic-plus" viewBox="0 0 24 24" fill="none" stroke="currentColor" stroke-width="1.75" stroke-linecap="round" stroke-linejoin="round"><path d="M12 5v14M5 12h14"></path></symbol>
  <symbol id="ic-minus" viewBox="0 0 24 24" fill="none" stroke="currentColor" stroke-width="1.75" stroke-linecap="round" stroke-linejoin="round"><path d="M5 12h14"></path></symbol>
  <symbol id="ic-settings" viewBox="0 0 24 24" fill="none" stroke="currentColor" stroke-width="1.75" stroke-linecap="round" stroke-linejoin="round"><path d="M4 7h11M18 7h2M4 12h4M11 12h9M4 17h11M18 17h2"></path><circle cx="16.5" cy="7" r="1.6"></circle><circle cx="9.5" cy="12" r="1.6"></circle><circle cx="16.5" cy="17" r="1.6"></circle></symbol>
  <symbol id="ic-message" viewBox="0 0 24 24" fill="none" stroke="currentColor" stroke-width="1.75" stroke-linecap="round" stroke-linejoin="round"><path d="M4 20.5V6a2 2 0 0 1 2-2h12a2 2 0 0 1 2 2v9a2 2 0 0 1-2 2H8z"></path></symbol>
  <symbol id="ic-thread" viewBox="0 0 24 24" fill="none" stroke="currentColor" stroke-width="1.75" stroke-linecap="round" stroke-linejoin="round"><path d="M2.5 15V5.5a2 2 0 0 1 2-2h9a2 2 0 0 1 2 2v5a2 2 0 0 1-2 2H6z"></path><path d="M9 16h8.5a2 2 0 0 1 2 2v4l-3.5-2.5H12"></path></symbol>
  <symbol id="ic-send" viewBox="0 0 24 24" fill="none" stroke="currentColor" stroke-width="1.75" stroke-linecap="round" stroke-linejoin="round"><path d="M21 3L3 10.5l7 3.2L13.2 21z"></path><path d="M21 3l-11 10.7"></path></symbol>
  <symbol id="ic-reply" viewBox="0 0 24 24" fill="none" stroke="currentColor" stroke-width="1.75" stroke-linecap="round" stroke-linejoin="round"><path d="M4 11h9a5 5 0 0 1 5 5v2M8 7l-4 4 4 4"></path></symbol>
  <symbol id="ic-forward" viewBox="0 0 24 24" fill="none" stroke="currentColor" stroke-width="1.75" stroke-linecap="round" stroke-linejoin="round"><path d="M20 11h-9a5 5 0 0 0-5 5v2M16 7l4 4-4 4"></path></symbol>
  <symbol id="ic-compose" viewBox="0 0 24 24" fill="none" stroke="currentColor" stroke-width="1.75" stroke-linecap="round" stroke-linejoin="round"><path d="M4 20h4l11-11a2.8 2.8 0 0 0-4-4L4 16z"></path><path d="M15 6l3 3"></path></symbol>
  <symbol id="ic-reaction" viewBox="0 0 24 24" fill="none" stroke="currentColor" stroke-width="1.75" stroke-linecap="round" stroke-linejoin="round"><circle cx="12" cy="12" r="8.5"></circle><path d="M8.5 14.5s1.3 2 3.5 2 3.5-2 3.5-2"></path><circle cx="9.2" cy="9.8" r="1" fill="currentColor" stroke="none"></circle><circle cx="14.8" cy="9.8" r="1" fill="currentColor" stroke="none"></circle></symbol>
  <symbol id="ic-attach" viewBox="0 0 24 24" fill="none" stroke="currentColor" stroke-width="1.75" stroke-linecap="round" stroke-linejoin="round"><path d="M16.5 7.5l-7.1 7.1a2.5 2.5 0 0 0 3.5 3.5l7.1-7.1a4.5 4.5 0 0 0-6.4-6.4l-7.6 7.6"></path></symbol>
  <symbol id="ic-mic" viewBox="0 0 24 24" fill="none" stroke="currentColor" stroke-width="1.75" stroke-linecap="round" stroke-linejoin="round"><path d="M12 3.5a3 3 0 0 1 3 3v5a3 3 0 0 1-6 0v-5a3 3 0 0 1 3-3z"></path><path d="M5.5 11a6.5 6.5 0 0 0 13 0M12 17.5V21"></path></symbol>
  <symbol id="ic-voice-note" viewBox="0 0 24 24" fill="none" stroke="currentColor" stroke-width="1.75" stroke-linecap="round" stroke-linejoin="round"><path d="M4 10v4M8 7v10M12 4.5v15M16 8v8M20 11v2"></path></symbol>
  <symbol id="ic-channel" viewBox="0 0 24 24" fill="none" stroke="currentColor" stroke-width="1.75" stroke-linecap="round" stroke-linejoin="round"><path d="M6 4l-1.4 16M14.5 4l-1.4 16M3.6 9h16M2.9 15h16"></path></symbol>
  <symbol id="ic-mention" viewBox="0 0 24 24" fill="none" stroke="currentColor" stroke-width="1.75" stroke-linecap="round" stroke-linejoin="round"><circle cx="11" cy="11" r="3.2"></circle><path d="M14.2 8v4.5a2.3 2.3 0 0 0 4.4.9A8.5 8.5 0 1 0 15.5 19"></path></symbol>
  <symbol id="ic-pin" viewBox="0 0 24 24" fill="none" stroke="currentColor" stroke-width="1.75" stroke-linecap="round" stroke-linejoin="round"><path d="M12 21v-6M8 4h8l-1 5 2.5 3H5.5L8 9z"></path></symbol>
  <symbol id="ic-saved" viewBox="0 0 24 24" fill="none" stroke="currentColor" stroke-width="1.75" stroke-linecap="round" stroke-linejoin="round"><path d="M6.5 3.5h11v17l-5.5-4-5.5 4z"></path></symbol>
  <symbol id="ic-notify" viewBox="0 0 24 24" fill="none" stroke="currentColor" stroke-width="1.75" stroke-linecap="round" stroke-linejoin="round"><path d="M18 16v-5a6 6 0 1 0-12 0v5l-1.5 2.5h15z"></path><path d="M10 21.2h4"></path></symbol>
  <symbol id="ic-mute" viewBox="0 0 24 24" fill="none" stroke="currentColor" stroke-width="1.75" stroke-linecap="round" stroke-linejoin="round"><path d="M18 16v-5a6 6 0 0 0-8.4-5.5M6 8.6V11v5l-1.5 2.5h13"></path><path d="M3 3l18 18"></path></symbol>
  <symbol id="ic-sent" viewBox="0 0 24 24" fill="none" stroke="currentColor" stroke-width="1.75" stroke-linecap="round" stroke-linejoin="round"><path d="M4 13l5 5L20 7"></path></symbol>
  <symbol id="ic-read" viewBox="0 0 24 24" fill="none" stroke="currentColor" stroke-width="1.75" stroke-linecap="round" stroke-linejoin="round"><path d="M2 12.5l4 4L13.5 8.5M9.5 16.5l2 2L22 8"></path></symbol>
  <symbol id="ic-pending" viewBox="0 0 24 24" fill="none" stroke="currentColor" stroke-width="1.75" stroke-linecap="round" stroke-linejoin="round"><circle cx="12" cy="12" r="8.5"></circle><path d="M12 7.5V12l3.5 2"></path></symbol>
  <symbol id="ic-camera" viewBox="0 0 24 24" fill="none" stroke="currentColor" stroke-width="1.75" stroke-linecap="round" stroke-linejoin="round"><path d="M4 8.5h3l1.5-2.5h7L17 8.5h3a1.5 1.5 0 0 1 1.5 1.5v8a1.5 1.5 0 0 1-1.5 1.5H4A1.5 1.5 0 0 1 2.5 18v-8A1.5 1.5 0 0 1 4 8.5z"></path><circle cx="12" cy="13.5" r="3.4"></circle></symbol>
  <symbol id="ic-call" viewBox="0 0 24 24" fill="none" stroke="currentColor" stroke-width="1.75" stroke-linecap="round" stroke-linejoin="round"><path d="M6.5 3.5h3l1.5 4-2 1.5a11 11 0 0 0 6 6l1.5-2 4 1.5v3a1.5 1.5 0 0 1-1.5 1.5A16.5 16.5 0 0 1 3.5 5A1.5 1.5 0 0 1 5 3.5z"></path></symbol>
  <symbol id="ic-end-call" viewBox="0 0 24 24" fill="none" stroke="currentColor" stroke-width="1.75" stroke-linecap="round" stroke-linejoin="round"><path d="M6.5 3.5h3l1.5 4-2 1.5a11 11 0 0 0 6 6l1.5-2 4 1.5v3a1.5 1.5 0 0 1-1.5 1.5A16.5 16.5 0 0 1 3.5 5A1.5 1.5 0 0 1 5 3.5z"></path><path d="M3 3l18 18"></path></symbol>
  <symbol id="ic-video" viewBox="0 0 24 24" fill="none" stroke="currentColor" stroke-width="1.75" stroke-linecap="round" stroke-linejoin="round"><path d="M3.5 7.5a2 2 0 0 1 2-2h6a2 2 0 0 1 2 2v9a2 2 0 0 1-2 2h-6a2 2 0 0 1-2-2z"></path><path d="M13.5 11l6-3.5v9l-6-3.5"></path></symbol>
  <symbol id="ic-video-off" viewBox="0 0 24 24" fill="none" stroke="currentColor" stroke-width="1.75" stroke-linecap="round" stroke-linejoin="round"><path d="M3.5 7.5a2 2 0 0 1 2-2h6a2 2 0 0 1 2 2v9a2 2 0 0 1-2 2h-6a2 2 0 0 1-2-2z"></path><path d="M13.5 11l6-3.5v9l-6-3.5"></path><path d="M3 3l18 18"></path></symbol>
  <symbol id="ic-mic-off" viewBox="0 0 24 24" fill="none" stroke="currentColor" stroke-width="1.75" stroke-linecap="round" stroke-linejoin="round"><path d="M12 3.5a3 3 0 0 1 3 3v5a3 3 0 0 1-6 0v-5a3 3 0 0 1 3-3z"></path><path d="M5.5 11a6.5 6.5 0 0 0 13 0M12 17.5V21"></path><path d="M3 3l18 18"></path></symbol>
  <symbol id="ic-speaker" viewBox="0 0 24 24" fill="none" stroke="currentColor" stroke-width="1.75" stroke-linecap="round" stroke-linejoin="round"><path d="M4 10v4h3l4 3.5v-11L7 10z"></path><path d="M14.5 9.5a3.5 3.5 0 0 1 0 5M17 7a7 7 0 0 1 0 10"></path></symbol>
  <symbol id="ic-speaker-off" viewBox="0 0 24 24" fill="none" stroke="currentColor" stroke-width="1.75" stroke-linecap="round" stroke-linejoin="round"><path d="M4 10v4h3l4 3.5v-11L7 10z"></path><path d="M15 10l5 4M20 10l-5 4"></path></symbol>
  <symbol id="ic-screen-share" viewBox="0 0 24 24" fill="none" stroke="currentColor" stroke-width="1.75" stroke-linecap="round" stroke-linejoin="round"><rect x="2.5" y="5" width="19" height="12" rx="2"></rect><path d="M8 20h8"></path></symbol>
  <symbol id="ic-play-recording" viewBox="0 0 24 24" fill="none" stroke="currentColor" stroke-width="1.75" stroke-linecap="round" stroke-linejoin="round"><circle cx="12" cy="12" r="8.5"></circle><path d="M10 8.5l6 3.5-6 3.5z"></path></symbol>
  <symbol id="ic-record" viewBox="0 0 24 24" fill="none" stroke="currentColor" stroke-width="1.75" stroke-linecap="round" stroke-linejoin="round"><circle cx="12" cy="12" r="8.5"></circle><circle cx="12" cy="12" r="3.4" fill="currentColor" stroke="none"></circle></symbol>
  <symbol id="ic-file" viewBox="0 0 24 24" fill="none" stroke="currentColor" stroke-width="1.75" stroke-linecap="round" stroke-linejoin="round"><path d="M13.5 3.5H7a2 2 0 0 0-2 2v13a2 2 0 0 0 2 2h10a2 2 0 0 0 2-2V9z"></path><path d="M13.5 3.5V9H19"></path></symbol>
  <symbol id="ic-document" viewBox="0 0 24 24" fill="none" stroke="currentColor" stroke-width="1.75" stroke-linecap="round" stroke-linejoin="round"><path d="M13.5 3.5H7a2 2 0 0 0-2 2v13a2 2 0 0 0 2 2h10a2 2 0 0 0 2-2V9z"></path><path d="M13.5 3.5V9H19M8.5 13h7M8.5 16.5h5"></path></symbol>
  <symbol id="ic-spreadsheet" viewBox="0 0 24 24" fill="none" stroke="currentColor" stroke-width="1.75" stroke-linecap="round" stroke-linejoin="round"><rect x="3.5" y="4.5" width="17" height="15" rx="2"></rect><path d="M3.5 10h17M3.5 15h17M10 4.5v15M15 4.5v15"></path></symbol>
  <symbol id="ic-image" viewBox="0 0 24 24" fill="none" stroke="currentColor" stroke-width="1.75" stroke-linecap="round" stroke-linejoin="round"><rect x="3.5" y="4.5" width="17" height="15" rx="2"></rect><circle cx="9" cy="10" r="1.8"></circle><path d="M4 17l4.5-4.5 4 4 3-2.5 4.5 4"></path></symbol>
  <symbol id="ic-video-file" viewBox="0 0 24 24" fill="none" stroke="currentColor" stroke-width="1.75" stroke-linecap="round" stroke-linejoin="round"><path d="M13.5 3.5H7a2 2 0 0 0-2 2v13a2 2 0 0 0 2 2h10a2 2 0 0 0 2-2V9z"></path><path d="M13.5 3.5V9H19"></path><path d="M10 12.5l4 2.5-4 2.5z"></path></symbol>
  <symbol id="ic-audio-file" viewBox="0 0 24 24" fill="none" stroke="currentColor" stroke-width="1.75" stroke-linecap="round" stroke-linejoin="round"><path d="M13.5 3.5H7a2 2 0 0 0-2 2v13a2 2 0 0 0 2 2h10a2 2 0 0 0 2-2V9z"></path><path d="M13.5 3.5V9H19"></path><circle cx="10.2" cy="16" r="1.8"></circle><path d="M12 16v-4l3-.9"></path></symbol>
  <symbol id="ic-folder" viewBox="0 0 24 24" fill="none" stroke="currentColor" stroke-width="1.75" stroke-linecap="round" stroke-linejoin="round"><path d="M3.5 6.5a2 2 0 0 1 2-2h3.2l2 2.5h6.8a2 2 0 0 1 2 2v9a2 2 0 0 1-2 2h-12a2 2 0 0 1-2-2z"></path></symbol>
  <symbol id="ic-new-folder" viewBox="0 0 24 24" fill="none" stroke="currentColor" stroke-width="1.75" stroke-linecap="round" stroke-linejoin="round"><path d="M3.5 6.5a2 2 0 0 1 2-2h3.2l2 2.5h6.8a2 2 0 0 1 2 2v9a2 2 0 0 1-2 2h-12a2 2 0 0 1-2-2z"></path><path d="M12 11.5v5M9.5 14h5"></path></symbol>
  <symbol id="ic-upload" viewBox="0 0 24 24" fill="none" stroke="currentColor" stroke-width="1.75" stroke-linecap="round" stroke-linejoin="round"><path d="M12 16V4M7 9l5-5 5 5"></path><path d="M4 15v3.5A1.5 1.5 0 0 0 5.5 20h13a1.5 1.5 0 0 0 1.5-1.5V15"></path></symbol>
  <symbol id="ic-download" viewBox="0 0 24 24" fill="none" stroke="currentColor" stroke-width="1.75" stroke-linecap="round" stroke-linejoin="round"><path d="M12 4v12M7 11l5 5 5-5"></path><path d="M4 15v3.5A1.5 1.5 0 0 0 5.5 20h13a1.5 1.5 0 0 0 1.5-1.5V15"></path></symbol>
  <symbol id="ic-cloud" viewBox="0 0 24 24" fill="none" stroke="currentColor" stroke-width="1.75" stroke-linecap="round" stroke-linejoin="round"><path d="M7 19h10.5a3.5 3.5 0 0 0 .4-7A5.5 5.5 0 0 0 7 10.6 4.2 4.2 0 0 0 7 19z"></path></symbol>
  <symbol id="ic-link" viewBox="0 0 24 24" fill="none" stroke="currentColor" stroke-width="1.75" stroke-linecap="round" stroke-linejoin="round"><path d="M10 14a4 4 0 0 1 0-5.6l2.8-2.8a4 4 0 0 1 5.6 5.6L17 12.6"></path><path d="M14 10a4 4 0 0 1 0 5.6l-2.8 2.8a4 4 0 0 1-5.6-5.6L7 11.4"></path></symbol>
  <symbol id="ic-copy" viewBox="0 0 24 24" fill="none" stroke="currentColor" stroke-width="1.75" stroke-linecap="round" stroke-linejoin="round"><rect x="8.5" y="3.5" width="12" height="12" rx="2"></rect><path d="M15.5 15.5v3a2 2 0 0 1-2 2H5.5a2 2 0 0 1-2-2V9.5a2 2 0 0 1 2-2h3"></path></symbol>
  <symbol id="ic-share" viewBox="0 0 24 24" fill="none" stroke="currentColor" stroke-width="1.75" stroke-linecap="round" stroke-linejoin="round"><circle cx="6" cy="12" r="2.5"></circle><circle cx="17" cy="6.5" r="2.5"></circle><circle cx="17" cy="17.5" r="2.5"></circle><path d="M8.3 10.8l6.4-3.2M8.3 13.2l6.4 3.2"></path></symbol>
  <symbol id="ic-tag" viewBox="0 0 24 24" fill="none" stroke="currentColor" stroke-width="1.75" stroke-linecap="round" stroke-linejoin="round"><path d="M11 3.5H5a1.5 1.5 0 0 0-1.5 1.5v6L13 20.5a1.5 1.5 0 0 0 2.1 0l5.4-5.4a1.5 1.5 0 0 0 0-2.1z"></path><circle cx="8" cy="8" r="1.5"></circle></symbol>
  <symbol id="ic-star" viewBox="0 0 24 24" fill="none" stroke="currentColor" stroke-width="1.75" stroke-linecap="round" stroke-linejoin="round"><path d="M12 4l2.5 5.4 5.9.7-4.3 4 1.1 5.8L12 17.2 6.8 19.9l1.1-5.8-4.3-4 5.9-.7z"></path></symbol>
  <symbol id="ic-archive" viewBox="0 0 24 24" fill="none" stroke="currentColor" stroke-width="1.75" stroke-linecap="round" stroke-linejoin="round"><rect x="3.5" y="4.5" width="17" height="4" rx="1.5"></rect><path d="M5 8.5v10A1.5 1.5 0 0 0 6.5 20h11a1.5 1.5 0 0 0 1.5-1.5v-10M10 12.5h4"></path></symbol>
  <symbol id="ic-delete" viewBox="0 0 24 24" fill="none" stroke="currentColor" stroke-width="1.75" stroke-linecap="round" stroke-linejoin="round"><path d="M4.5 7.5h15M9 7.5V5.5A1.5 1.5 0 0 1 10.5 4h3A1.5 1.5 0 0 1 15 5.5v2"></path><path d="M6.5 7.5l1 11.5A1.5 1.5 0 0 0 9 20.5h6a1.5 1.5 0 0 0 1.5-1.5l1-11.5"></path></symbol>
  <symbol id="ic-open-external" viewBox="0 0 24 24" fill="none" stroke="currentColor" stroke-width="1.75" stroke-linecap="round" stroke-linejoin="round"><path d="M13 4h7v7M20 4l-9 9"></path><path d="M17.5 14v4.5A1.5 1.5 0 0 1 16 20H5.5A1.5 1.5 0 0 1 4 18.5V8a1.5 1.5 0 0 1 1.5-1.5H10"></path></symbol>
  <symbol id="ic-preview" viewBox="0 0 24 24" fill="none" stroke="currentColor" stroke-width="1.75" stroke-linecap="round" stroke-linejoin="round"><path d="M2.5 12s3.5-6 9.5-6 9.5 6 9.5 6-3.5 6-9.5 6-9.5-6-9.5-6z"></path><circle cx="12" cy="12" r="3"></circle></symbol>
  <symbol id="ic-member" viewBox="0 0 24 24" fill="none" stroke="currentColor" stroke-width="1.75" stroke-linecap="round" stroke-linejoin="round"><circle cx="12" cy="8.5" r="4"></circle><path d="M4.5 20a7.5 7.5 0 0 1 15 0"></path></symbol>
  <symbol id="ic-group" viewBox="0 0 24 24" fill="none" stroke="currentColor" stroke-width="1.75" stroke-linecap="round" stroke-linejoin="round"><circle cx="9.5" cy="8.5" r="3.6"></circle><path d="M2.5 20a7 7 0 0 1 14 0M16.5 5.2a3.6 3.6 0 0 1 0 6.9M18 14.5a7 7 0 0 1 3.5 5.5"></path></symbol>
  <symbol id="ic-invite" viewBox="0 0 24 24" fill="none" stroke="currentColor" stroke-width="1.75" stroke-linecap="round" stroke-linejoin="round"><circle cx="10" cy="8.5" r="3.8"></circle><path d="M3 20a7 7 0 0 1 14 0M18 6.5v5M15.5 9h5"></path></symbol>
  <symbol id="ic-privacy" viewBox="0 0 24 24" fill="none" stroke="currentColor" stroke-width="1.75" stroke-linecap="round" stroke-linejoin="round"><path d="M12 3.5l7.5 3v5.5c0 4.3-3 7.5-7.5 8.5-4.5-1-7.5-4.2-7.5-8.5V6.5z"></path></symbol>
  <symbol id="ic-locked" viewBox="0 0 24 24" fill="none" stroke="currentColor" stroke-width="1.75" stroke-linecap="round" stroke-linejoin="round"><rect x="5" y="10.5" width="14" height="9.5" rx="2"></rect><path d="M8.5 10.5V8a3.5 3.5 0 0 1 7 0v2.5"></path></symbol>
  <symbol id="ic-unlocked" viewBox="0 0 24 24" fill="none" stroke="currentColor" stroke-width="1.75" stroke-linecap="round" stroke-linejoin="round"><rect x="5" y="10.5" width="14" height="9.5" rx="2"></rect><path d="M8.5 10.5V8a3.5 3.5 0 0 1 6.6-1.7"></path></symbol>
  <symbol id="ic-encryption-key" viewBox="0 0 24 24" fill="none" stroke="currentColor" stroke-width="1.75" stroke-linecap="round" stroke-linejoin="round"><circle cx="8" cy="15" r="4"></circle><path d="M10.9 12.1L20 3M17 6l2.5 2.5M14.5 8.5l2.5 2.5"></path></symbol>
  <symbol id="ic-hidden" viewBox="0 0 24 24" fill="none" stroke="currentColor" stroke-width="1.75" stroke-linecap="round" stroke-linejoin="round"><path d="M2.5 12s3.5-6 9.5-6 9.5 6 9.5 6-3.5 6-9.5 6-9.5-6-9.5-6z"></path><circle cx="12" cy="12" r="3"></circle><path d="M3 3l18 18"></path></symbol>
  <symbol id="ic-public" viewBox="0 0 24 24" fill="none" stroke="currentColor" stroke-width="1.75" stroke-linecap="round" stroke-linejoin="round"><circle cx="12" cy="12" r="8.5"></circle><path d="M3.5 12h17"></path><path d="M12 3.5a13 13 0 0 1 0 17 13 13 0 0 1 0-17"></path></symbol>
  <symbol id="ic-sign-out" viewBox="0 0 24 24" fill="none" stroke="currentColor" stroke-width="1.75" stroke-linecap="round" stroke-linejoin="round"><path d="M14 6V4.5A1.5 1.5 0 0 0 12.5 3h-7A1.5 1.5 0 0 0 4 4.5v15A1.5 1.5 0 0 0 5.5 21h7a1.5 1.5 0 0 0 1.5-1.5V18"></path><path d="M10 12h11M17.5 8.5L21 12l-3.5 3.5"></path></symbol>
  <symbol id="ic-success" viewBox="0 0 24 24" fill="none" stroke="currentColor" stroke-width="1.75" stroke-linecap="round" stroke-linejoin="round"><circle cx="12" cy="12" r="8.5"></circle><path d="M8 12.3l2.8 2.8 5.4-5.6"></path></symbol>
  <symbol id="ic-failed" viewBox="0 0 24 24" fill="none" stroke="currentColor" stroke-width="1.75" stroke-linecap="round" stroke-linejoin="round"><circle cx="12" cy="12" r="8.5"></circle><path d="M9 9l6 6M15 9l-6 6"></path></symbol>
  <symbol id="ic-warning" viewBox="0 0 24 24" fill="none" stroke="currentColor" stroke-width="1.75" stroke-linecap="round" stroke-linejoin="round"><path d="M12 4l8.5 15H3.5z"></path><path d="M12 9.5v4.5"></path><circle cx="12" cy="17" r="1" fill="currentColor" stroke="none"></circle></symbol>
  <symbol id="ic-info" viewBox="0 0 24 24" fill="none" stroke="currentColor" stroke-width="1.75" stroke-linecap="round" stroke-linejoin="round"><circle cx="12" cy="12" r="8.5"></circle><path d="M12 11.5v5.5"></path><circle cx="12" cy="7.8" r="1.05" fill="currentColor" stroke="none"></circle></symbol>
  <symbol id="ic-help" viewBox="0 0 24 24" fill="none" stroke="currentColor" stroke-width="1.75" stroke-linecap="round" stroke-linejoin="round"><circle cx="12" cy="12" r="8.5"></circle><path d="M9.3 9.2A2.8 2.8 0 0 1 14.8 10c0 1.9-2.8 2.3-2.8 4"></path><circle cx="12" cy="17.4" r="1.05" fill="currentColor" stroke="none"></circle></symbol>
  <symbol id="ic-retry" viewBox="0 0 24 24" fill="none" stroke="currentColor" stroke-width="1.75" stroke-linecap="round" stroke-linejoin="round"><path d="M19.6 11a7.5 7.5 0 1 0-2.4 6.3"></path><path d="M20.5 5.5v5.5H15"></path></symbol>
  <symbol id="ic-loading" viewBox="0 0 24 24" fill="none" stroke="currentColor" stroke-width="1.75" stroke-linecap="round" stroke-linejoin="round"><path d="M12 3.5V7M12 17v3.5M3.5 12H7M17 12h3.5M6.2 6.2l2.4 2.4M15.4 15.4l2.4 2.4M17.8 6.2l-2.4 2.4M8.6 15.4l-2.4 2.4"></path></symbol>
  <symbol id="ic-calendar" viewBox="0 0 24 24" fill="none" stroke="currentColor" stroke-width="1.75" stroke-linecap="round" stroke-linejoin="round"><rect x="3.5" y="5.5" width="17" height="14" rx="2"></rect><path d="M3.5 10h17M8 3.5v4M16 3.5v4"></path></symbol>
  <symbol id="ic-recent" viewBox="0 0 24 24" fill="none" stroke="currentColor" stroke-width="1.75" stroke-linecap="round" stroke-linejoin="round"><circle cx="12" cy="12" r="8.5"></circle><path d="M12 7.5V12l3.5 2"></path></symbol>
  <symbol id="ic-online" viewBox="0 0 24 24" fill="none" stroke="currentColor" stroke-width="1.75" stroke-linecap="round" stroke-linejoin="round"><circle cx="12" cy="12" r="5" fill="currentColor" stroke="none"></circle></symbol>
</svg>